Coordinates
version=1
nRows=11
nColumns=40
inDegrees=yes

Units are S.I. units (second, meters, Newtons, ...)
Angles are in degrees.

endheader
time	pelvis_tilt	pelvis_list	pelvis_rotation	pelvis_tx	pelvis_ty	pelvis_tz	hip_flexion_r	hip_adduction_r	hip_rotation_r	knee_angle_r	knee_angle_r_beta	ankle_angle_r	subtalar_angle_r	mtp_angle_r	hip_flexion_l	hip_adduction_l	hip_rotation_l	knee_angle_l	knee_angle_l_beta	ankle_angle_l	subtalar_angle_l	mtp_angle_l	lumbar_extension	lumbar_bending	lumbar_rotation	arm_flex_r	arm_add_r	arm_rot_r	elbow_flex_r	pro_sup_r	wrist_flex_r	wrist_dev_r	arm_flex_l	arm_add_l	arm_rot_l	elbow_flex_l	pro_sup_l	wrist_flex_l	wrist_dev_l
      1.22000000	     -7.21070621	     -5.34253296	     -3.56254399	      1.06716958	      0.92801146	      0.42201767	     30.91992849	     -5.09093598	     -4.57831644	     69.85451112	     69.85451112	     -0.53631406	    -17.91501791	      4.41874216	     21.53278381	     -6.58983947	     -2.84171493	     25.30091311	     25.30091311	     12.81435661	    -14.41221869	      5.38826511	    -11.52759273	      3.96123102	      2.97314705	     17.89468676	    -12.62516849	      4.09059727	     69.65865366	     44.77252640	      0.00000000	      0.00000000	      5.36565910	    -12.70011454	    -11.24538630	     54.38394190	     45.03030375	      0.00000000	      0.00000000
      1.23207143	     -7.27261992	     -5.37644523	     -4.01175120	      1.06578387	      0.92888489	      0.42167692	     32.61797562	     -4.94751903	     -4.51128041	     69.27628438	     69.27628438	     -0.55534553	    -17.68217781	      4.11451888	     20.57356726	     -6.66110705	     -3.28612535	     24.58170652	     24.58170652	     13.09992756	    -14.26138359	      5.16948659	    -11.58752678	      4.17709890	      3.58120790	     15.57472500	    -13.77010688	      4.06544460	     66.89130479	     44.86406267	      0.00000000	      0.00000000	      6.87577490	    -12.92391800	    -11.36921285	     56.32419834	     45.10397915	      0.00000000	      0.00000000
      1.24414286	     -7.21125632	     -5.42453165	     -4.46125910	      1.06450629	      0.92973387	      0.42141582	     34.00338361	     -4.80234782	     -4.51952978	     68.41443944	     68.41443944	     -0.82611157	    -17.40236284	      2.96892159	     19.52053090	     -6.74166407	     -3.74906287	     23.92808298	     23.92808298	     13.12618275	    -14.25907022	      4.23708505	    -11.77946894	      4.33525267	      3.20470290	     14.96195070	    -13.47325596	      3.06894297	     60.80969075	     45.12774950	      0.00000000	      0.00000000	      7.03599420	    -14.07427062	    -10.83927764	     60.20954458	     45.23428486	      0.00000000	      0.00000000
      1.25621429	     -7.09930310	     -5.39025874	     -4.91357655	      1.06327734	      0.93064887	      0.42111474	     35.25337065	     -4.67711106	     -4.43433412	     67.33852380	     67.33852380	     -0.85023403	    -16.94206003	      2.79582361	     18.36645901	     -6.69325472	     -4.21013668	     23.18641836	     23.18641836	     13.41660488	    -14.15846211	      4.12669883	    -12.08377377	      4.43306063	      3.81359669	     12.96587767	    -14.54243260	      3.07077820	     57.84406249	     45.22589720	      0.00000000	      0.00000000	      8.52408512	    -14.28579075	    -11.16782489	     62.30434925	     45.33302126	      0.00000000	      0.00000000
      1.26828571	     -7.04560277	     -5.41233982	     -5.31146491	      1.06208428	      0.93131529	      0.42092523	     36.36242994	     -4.51414911	     -4.49308199	     65.87374425	     65.87374425	     -1.07273944	    -16.45260344	      2.01432875	     17.33405709	     -6.70635569	     -4.63320186	     22.50622486	     22.50622486	     13.47216230	    -14.11602971	      3.36274937	    -12.24155626	      4.55598046	      3.10121654	     13.11411302	    -14.07137460	      2.17420030	     50.74662545	     45.52227868	      0.00000000	      0.00000000	      8.47524386	    -15.41579241	    -11.35622711	     66.03202854	     45.54861873	      0.00000000	      0.00000000
      1.28035714	     -6.97202567	     -5.43752423	     -5.70229160	      1.06097824	      0.93197589	      0.42074981	     37.28733112	     -4.33279961	     -4.58086786	     64.04973076	     64.04973076	     -1.01826426	    -15.65909411	      1.94106559	     16.25125739	     -6.70002727	     -5.04571584	     21.78332537	     21.78332537	     13.77740481	    -13.92600849	      3.29774361	    -12.51375178	      4.74576940	      3.60216927	     11.16528977	    -15.10428384	      2.12775434	     48.32622842	     45.60192289	      0.00000000	      0.00000000	      9.89212080	    -15.55909993	    -11.81730044	     67.95257488	     45.64633183	      0.00000000	      0.00000000
      1.29242857	     -6.93765131	     -5.42533115	     -6.07545138	      1.05985267	      0.93233512	      0.42076940	     38.07937089	     -4.14410113	     -4.66715579	     61.79525452	     61.79525452	     -1.23705909	    -14.92500346	      0.95054285	     15.29386151	     -6.68345879	     -5.52912279	     21.17818674	     21.17818674	     13.84435748	    -13.78769629	      2.48248189	    -12.68822966	      4.82081622	      2.94288648	     11.50978571	    -14.73101035	      0.93274155	     41.42392746	     45.91084155	      0.00000000	      0.00000000	      9.83261465	    -16.59758266	    -12.32750407	     71.71752385	     45.89015295	      0.00000000	      0.00000000
      1.30450000	     -6.89929134	     -5.42356262	     -6.41834893	      1.05884477	      0.93265624	      0.42078168	     38.66014657	     -3.97081625	     -4.85692760	     59.12650998	     59.12650998	     -1.07873910	    -13.75054397	      0.81114739	     14.29353077	     -6.64211942	     -5.94064022	     20.51269902	     20.51269902	     14.15420003	    -13.55784583	      2.37331787	    -12.92773789	      4.97316921	      3.34653194	      9.63480649	    -15.66032735	      0.76016058	     39.33589510	     45.98525234	      0.00000000	      0.00000000	     11.13486030	    -16.72410229	    -12.87042956	     73.69886656	     45.99566956	      0.00000000	      0.00000000
      1.31657143	     -6.93767816	     -5.38250596	     -6.69812051	      1.05788746	      0.93264359	      0.42096323	     39.07031160	     -3.79973339	     -5.09722424	     55.93000988	     55.93000988	     -1.35322036	    -12.83977302	     -0.71609757	     13.43171134	     -6.58817908	     -6.37691870	     19.90538356	     19.90538356	     14.20669744	    -13.28117306	      1.48357662	    -13.02951407	      5.04029840	      2.70615180	      9.58206738	    -15.51125740	     -0.79200475	     33.90880909	     46.26973393	      0.00000000	      0.00000000	     11.03079718	    -17.60854335	    -13.56568989	     77.47517009	     46.25559874	      0.00000000	      0.00000000
      1.32864286	     -7.08068573	     -5.38202731	     -6.95350414	      1.05695437	      0.93241261	      0.42122873	     39.39645305	     -3.54843413	     -5.40227216	     52.38583602	     52.38583602	     -1.07154107	    -11.46420375	     -0.65806741	     12.71373032	     -6.56652383	     -6.70371880	     19.36814545	     19.36814545	     14.54029255	    -13.06781889	      1.37509898	    -13.02340455	      5.26793558	      2.68037841	      7.74524733	    -16.24172959	     -0.95147824	     32.67497924	     46.31369219	      0.00000000	      0.00000000	     12.09058798	    -18.08780627	    -14.05690348	     78.84867865	     46.33094002	      0.00000000	      0.00000000
      1.34071429	     -7.03138171	     -5.31974309	     -7.19003446	      1.05636501	      0.93237217	      0.42154485	     39.21683311	     -3.41979211	     -5.88687727	     48.36485668	     48.36485668	     -0.79709744	     -9.68408273	     -0.83477230	     11.69623873	     -6.46209302	     -7.15419809	     18.69780976	     18.69780976	     14.80036102	    -12.60346140	      1.12131573	    -13.23211743	      5.30006710	      3.11934569	      5.84165518	    -17.04456370	     -1.26419589	     30.84559489	     46.39219357	      0.00000000	      0.00000000	     13.16654968	    -18.00902508	    -14.33990624	     81.46289554	     46.42130002	      0.00000000	      0.00000000
